<svg id="visual" viewBox="0 0 1300 800" width="1300" height="800" xmlns="http://www.w3.org/2000/svg" xmlns:xlink="http://www.w3.org/1999/xlink" version="1.1"><path d="M0 540L43.3 548.5C86.7 557 173.3 574 260 579.3C346.7 584.7 433.3 578.3 520 566.8C606.7 555.3 693.3 538.7 780 531.2C866.7 523.7 953.3 525.3 1040 529.2C1126.7 533 1213.3 539 1256.7 542L1300 545L1300 801L1256.7 801C1213.3 801 1126.7 801 1040 801C953.3 801 866.7 801 780 801C693.3 801 606.7 801 520 801C433.3 801 346.7 801 260 801C173.3 801 86.7 801 43.3 801L0 801Z" fill="#ffa3a3"></path><path d="M0 670L43.3 673.3C86.7 676.7 173.3 683.3 260 676.5C346.7 669.7 433.3 649.3 520 642.2C606.7 635 693.3 641 780 645.8C866.7 650.7 953.3 654.3 1040 663.7C1126.7 673 1213.3 688 1256.7 695.5L1300 703L1300 801L1256.7 801C1213.3 801 1126.7 801 1040 801C953.3 801 866.7 801 780 801C693.3 801 606.7 801 520 801C433.3 801 346.7 801 260 801C173.3 801 86.7 801 43.3 801L0 801Z" fill="#ffffff"></path></svg>